# xmcd CD database file generated by Grip 3.0.7
# 
# Track frame offsets:
#       150
#       16060
#       32010
#       55652
#       66985
#       75077
#       98697
#       112182
#       131215
#       143315
#       161795
#       177527
#       198887
# 
# Disc length: 2931 seconds
# 
# Revision: 3
# Processed by: cddbd v1.4PL0 Copyright (c) Steve Scherf et al.
# Submitted via: Grip 3.0.7
# 
DISCID=a40b710d
DTITLE=Wayne Hancock - That's What Daddy Wants
DYEAR=1997
DGENRE=Other
TTITLE0=That's What Daddy Wants
TTITLE1=87 Southbound
TTITLE2=Johnson City
TTITLE3=Misery
TTITLE4=Little Lisa
TTITLE5=Knocked Out Rhythm
TTITLE6=Highway 54
TTITLE7=Johnny Law
TTITLE8=Freight Line Blues
TTITLE9=Lea Ann
TTITLE10=Life On The Road
TTITLE11=Louisiana Blues
TTITLE12=Brand New Cadillac
EXTD=\nURL: http://www.ark21.com/artists/wayne_hancock/index.htm "Wayne Han
EXTD=cock Index" YEAR: 1997
EXTT0=
EXTT1=
EXTT2=
EXTT3=
EXTT4=
EXTT5=
EXTT6=
EXTT7=
EXTT8=
EXTT9=
EXTT10=
EXTT11=
EXTT12=
PLAYORDER=
